<svg xmlns="http://www.w3.org/2000/svg" viewBox="42.4 379.9 69 69"><path fill="#008B62" d="M 43.29 431.04 C 42.38 427.58 42.46 423.85 43.52 419.94 C 45.47 412.83 50.71 404.95 59.10 396.50 C 67.48 388.06 75.34 382.77 82.44 380.78 C 84.58 380.18 86.69 379.88 88.72 379.88 C 90.37 379.88 91.98 380.08 93.53 380.48 C 95.14 380.89 96.70 381.52 98.23 382.36 C 99.50 383.06 99.99 384.68 99.18 385.88 C 98.96 386.22 98.77 386.60 98.65 387.01 C 97.56 390.56 95.70 393.87 93.28 396.60 C 92.06 397.98 90.70 399.20 89.24 400.25 C 87.76 401.31 86.16 402.19 84.49 402.86 L 84.42 402.89 C 83.85 403.13 83.21 403.38 82.43 403.67 C 81.27 404.09 80.08 404.49 78.83 404.90 C 74.71 406.28 70.45 407.69 66.58 410.26 C 66.30 410.44 66 410.66 65.73 410.84 L 65.68 410.88 C 65.59 410.94 65.51 411.00 65.44 411.05 L 65.42 411.06 C 65.38 411.09 65.34 411.12 65.30 411.15 L 65.25 411.19 C 64.93 411.43 64.50 411.75 64.17 412.01 C 62.33 413.50 60.60 415.24 59.03 417.17 C 57.60 418.93 56.26 420.90 55.05 423.04 C 53.02 426.62 51.28 430.74 49.73 435.64 C 49.25 437.14 48.80 438.66 48.38 440.16 C 45.84 437.30 44.13 434.23 43.29 431.04"/><path fill="#135F44" d="M 110.20 408.38 C 108.26 415.65 103.06 423.57 94.75 431.94 C 86.44 440.30 78.55 445.55 71.30 447.53 C 67.38 448.60 63.64 448.70 60.17 447.82 C 58.19 447.32 56.26 446.49 54.41 445.33 C 55.16 444.94 55.80 444.31 56.21 443.50 C 56.83 442.27 57.45 441.01 57.99 439.89 L 58.07 439.74 C 58.51 438.83 58.97 437.89 59.42 437 C 61.71 432.44 63.15 430.15 64.14 428.67 C 65.38 426.83 66.69 425.18 68.03 423.76 C 68.05 423.75 68.07 423.73 68.08 423.71 C 68.14 423.65 68.24 423.55 68.33 423.46 L 68.48 423.32 C 68.52 423.27 68.56 423.23 68.60 423.19 C 68.71 423.07 68.83 422.96 68.96 422.83 C 69.21 422.60 69.50 422.32 69.86 422.01 L 69.89 421.98 C 69.89 421.98 69.90 421.98 69.90 421.97 C 69.99 421.89 70.16 421.75 70.30 421.63 L 70.44 421.51 C 70.5 421.47 70.55 421.43 70.60 421.39 L 71.03 421.05 L 71.05 421.04 C 71.06 421.03 71.08 421.01 71.09 421.00 C 71.18 420.93 71.25 420.88 71.27 420.86 C 71.30 420.84 71.33 420.82 71.36 420.80 C 72.60 419.87 73.99 419.06 75.47 418.39 C 75.49 418.38 75.51 418.37 75.53 418.36 C 77.46 417.47 79.5 416.76 81.65 416.00 L 81.67 415.99 C 83.84 415.23 86.08 414.44 88.32 413.44 C 93.24 411.34 97.59 407.94 100.90 403.62 C 104.03 399.52 106.06 394.81 106.80 389.91 C 108.54 392.24 109.75 394.70 110.42 397.26 C 111.32 400.71 111.25 404.46 110.20 408.38"/><path fill="#135F44" d="M 69.59 418.41 C 69.58 418.41 69.57 418.42 69.55 418.43 L 69.55 418.44 C 69.53 418.45 69.46 418.50 69.25 418.67 L 69.23 418.68 C 69.21 418.69 69.20 418.71 69.18 418.71 L 68.75 419.05 L 68.70 419.09 C 68.65 419.14 68.60 419.18 68.54 419.23 L 68.40 419.34 C 68.22 419.5 68.03 419.65 67.90 419.77 L 67.88 419.78 C 67.88 419.79 67.88 419.79 67.88 419.79 C 67.5 420.13 67.17 420.42 66.90 420.69 C 66.75 420.82 66.61 420.96 66.48 421.10 C 66.44 421.14 66.41 421.17 66.37 421.21 L 66.22 421.36 C 66.11 421.47 66.01 421.57 65.92 421.67 L 65.89 421.70 C 64.43 423.24 63.01 425.02 61.67 427.01 C 60.63 428.57 59.13 430.96 56.76 435.66 C 56.30 436.57 55.84 437.52 55.39 438.43 L 55.32 438.59 C 54.78 439.69 54.17 440.95 53.55 442.15 C 53.25 442.74 52.56 443.01 51.94 442.77 C 51.77 442.70 51.61 442.60 51.48 442.46 C 51.17 442.14 51.05 441.67 51.17 441.23 C 51.59 439.68 52.06 438.10 52.57 436.54 C 54.05 431.84 55.71 427.90 57.64 424.51 C 58.77 422.51 60.01 420.67 61.34 419.05 C 62.78 417.28 64.36 415.69 66.05 414.33 C 66.33 414.10 66.73 413.80 67.03 413.57 L 67.10 413.52 C 67.11 413.51 67.12 413.51 67.13 413.5 C 67.21 413.44 67.30 413.38 67.41 413.30 L 67.46 413.27 C 67.69 413.10 67.96 412.91 68.19 412.76 L 68.22 412.75 C 71.76 410.40 75.83 409.04 79.77 407.73 C 80.99 407.32 82.25 406.90 83.46 406.46 C 84.28 406.16 84.95 405.89 85.57 405.64 L 85.60 405.62 C 87.49 404.86 89.30 403.87 90.97 402.67 C 92.62 401.49 94.14 400.12 95.50 398.58 C 98.21 395.53 100.28 391.83 101.49 387.89 C 101.69 387.25 102.32 386.87 102.98 387.01 C 103.23 387.06 103.46 387.19 103.64 387.38 C 103.91 387.65 104.03 388.03 104 388.40 C 103.48 393.18 101.60 397.82 98.53 401.81 C 95.53 405.73 91.59 408.81 87.14 410.71 L 87.11 410.72 C 84.99 411.68 82.80 412.44 80.69 413.19 L 80.66 413.19 C 78.44 413.98 76.34 414.71 74.28 415.66 L 74.26 415.67 C 72.58 416.43 71.01 417.35 69.59 418.41"/></svg>