<svg xmlns="http://www.w3.org/2000/svg" viewBox="479.6 143.5 312.4 468.5">
<path fill="#135F44" d="M 791.94 221.55 L 787.40 221.55 L 787.40 223.83 C 787.40 229.44 785.32 234.57 781.88 238.5 C 777.79 243.17 771.79 246.12 765.10 246.12 C 764.62 246.12 764.23 245.69 764.35 245.17 C 764.43 244.82 764.78 244.58 765.14 244.58 C 776.57 244.55 785.85 235.26 785.85 223.83 L 785.85 221.55 L 781.56 221.55 L 781.56 222.14 C 781.56 226.37 779.95 230.25 777.31 233.17 C 774.30 236.5 769.94 238.60 765.10 238.60 C 764.61 238.60 764.23 238.14 764.35 237.64 C 764.44 237.28 764.78 237.05 765.15 237.05 C 773.35 237.03 780.01 230.35 780.01 222.14 L 780.01 221.55 L 773.94 221.55 C 773.30 224.67 772.20 227.32 770.41 229.01 C 769.59 229.78 768.02 230.91 765.09 231.28 L 765.08 231.28 C 765.09 229.07 765.10 226.87 765.10 224.69 C 765.11 223.96 765.11 223.23 765.11 222.5 L 765.11 221.55 L 761.02 221.55 C 761.08 224.48 761.14 227.51 761.20 230.62 C 761.19 231.08 761.19 231.55 761.18 232.01 C 760.86 253.82 760.55 275.62 760.23 297.42 C 759.66 297.37 759.09 297.32 758.51 297.28 L 758.51 297 C 758.60 275.28 758.69 253.57 758.79 231.87 L 758.79 231.73 C 758.79 231.35 758.79 230.96 758.80 230.57 C 758.79 227.48 758.77 224.46 758.75 221.55 L 753.10 221.55 C 753.22 236.64 753.42 259.85 753.77 296.78 L 753.77 297.07 C 753.11 297.05 752.44 297.03 751.76 297.03 C 751.35 297.03 750.95 297.05 750.55 297.05 C 750.54 296.96 750.54 296.87 750.54 296.78 C 749.51 266.55 750.54 256.91 750.30 227.76 C 750.28 225.53 750.26 223.48 750.23 221.55 L 746.77 221.55 C 746.83 250.46 747.20 288.30 747.29 296.91 L 747.29 297.16 C 746.55 297.19 745.83 297.23 745.13 297.28 C 744.27 275.28 743.96 256.10 743.94 239.96 C 743.94 233.30 743.98 227.17 744.05 221.55 L 741.76 221.55 C 741.76 223.32 741.75 225.14 741.75 226.98 C 738.29 226.33 735.35 224.32 733.46 221.55 L 726.49 221.55 C 728.14 227.53 733.03 232.32 739.31 233.62 L 740.63 233.89 C 740.96 233.96 741.24 234.23 741.26 234.57 C 741.30 235.07 740.92 235.42 740.49 235.42 C 740.44 235.42 740.38 235.42 740.33 235.42 L 739.00 235.14 C 735.04 234.30 731.58 232.21 729.02 229.35 C 727.06 227.14 725.63 224.46 724.90 221.55 L 719.74 221.55 C 721.17 231.73 729.93 239.57 740.49 239.57 C 740.98 239.57 741.36 240.01 741.24 240.53 C 741.16 240.87 740.82 241.10 740.46 241.10 C 733.72 241.10 727.67 238.12 723.55 233.41 C 720.70 230.14 718.77 226.05 718.18 221.55 L 713.98 221.55 C 714.71 231.32 721.04 239.89 730.36 243.32 C 730.37 243.32 730.36 243.32 730.54 243.39 C 737.89 246.08 740.58 247.19 741.78 247.53 C 741.85 262.51 742.01 279.28 742.26 297.39 L 742.26 297.55 C 735.19 298.30 730.67 299.64 730.67 299.64 L 774.46 299.64 C 774.46 299.64 770.28 298.60 764.10 297.83 C 764.10 297.78 764.11 297.73 764.11 297.67 C 764.11 296.69 764.12 294.91 764.17 292.71 C 764.25 287.80 764.62 271.67 764.87 252.78 C 766.66 252.12 769.60 251 774.62 249.14 C 774.81 249.07 774.80 249.07 774.81 249.07 C 784.81 245.39 791.53 236.03 791.97 225.48 C 791.99 224.92 792.00 224.37 791.99 223.82 C 791.97 223.07 791.96 222.30 791.94 221.55 "/>
<path fill="#135F44" d="M 713.91 612 L 792 612 L 792 533.91 L 713.91 533.91 Z M 713.91 612 "/>
<path fill="#008B62" d="M 635.82 299.64 L 713.91 299.64 L 713.91 221.56 L 635.82 221.56 Z M 635.82 299.64 "/>
<path fill="#135F44" d="M 713.91 377.73 L 792 377.73 L 792 299.64 L 713.91 299.64 Z M 713.91 377.73 "/>
<path fill="#135F44" d="M 713.93 220.73 C 713.94 221.01 713.96 221.28 713.98 221.55 L 713.91 221.55 L 713.91 219.55 C 713.91 219.96 713.92 220.35 713.93 220.73 "/>
<path fill="#135F44" d="M 719.53 218.60 C 719.53 219.60 719.60 220.60 719.74 221.55 L 718.18 221.55 C 718.05 220.58 717.98 219.60 717.98 218.60 L 717.98 195.14 C 717.98 193.87 718.55 192.66 719.53 191.85 Z M 719.53 218.60 "/>
<path fill="#135F44" d="M 725.89 217.12 C 725.89 218.64 726.10 220.14 726.49 221.55 L 724.90 221.55 C 724.54 220.12 724.35 218.64 724.35 217.12 L 724.35 192.16 L 724.34 191.26 C 725.30 191.82 725.89 192.85 725.89 193.96 Z M 725.89 217.12 "/>
<path fill="#135F44" d="M 750.04 169.08 C 749.97 169.26 749.86 169.53 749.73 169.83 C 749.56 170.21 749.44 170.48 749.43 170.5 C 747.16 175.41 746.99 189.07 746.99 189.07 C 746.92 194.82 746.76 204.08 746.76 208.96 L 746.76 218.73 C 746.76 219.66 746.76 220.60 746.77 221.55 L 744.05 221.55 C 744.29 203.66 744.85 191.17 745.15 184.55 C 745.52 176.07 747.27 172.17 748.57 170.42 C 749.36 169.37 749.99 169.10 750.04 169.08 "/>
<path fill="#135F44" d="M 752.95 196.42 C 752.96 200.91 753.00 207.89 753.10 221.55 L 750.23 221.55 C 750.08 210.98 749.86 204.05 749.96 189.10 C 750.00 183.51 750.07 178.94 750.12 176 C 750.09 174.21 750.36 171.26 752.41 169.08 C 752.58 168.89 752.76 168.73 752.95 168.57 Z M 752.95 196.42 "/>
<path fill="#135F44" d="M 759.74 177.62 C 760.03 180.64 760.53 197.62 761.02 221.55 L 758.75 221.55 C 758.59 198.10 758.17 181.51 757.87 178.48 C 757.64 176.21 757.23 174.05 757.01 172.98 C 756.92 172.51 756.85 172.25 756.85 172.25 C 756.58 171.05 756.31 170.07 756.11 169.37 C 757.14 170.55 758.31 172.21 759.05 174.39 C 759.09 174.48 759.58 175.96 759.74 177.62 "/>
<path fill="#135F44" d="M 781.56 194.73 L 781.56 221.55 L 780.01 221.55 L 780.01 196.46 C 780.01 195.57 780.68 194.82 781.56 194.73 "/>
<path fill="#135F44" d="M 787.40 197.53 L 787.40 221.55 L 785.85 221.55 L 785.85 196.19 C 785.85 195.94 785.98 195.71 786.17 195.57 L 786.18 195.57 C 786.93 195.94 787.40 196.71 787.40 197.53 "/>
<path fill="#135F44" d="M 752.95 143.48 C 774.51 143.48 791.99 160.96 791.99 182.51 L 791.99 221.55 L 791.94 221.55 C 791.81 214.92 791.66 208.32 791.53 201.69 C 791.48 199.46 790.47 196.35 787.90 194.21 C 787.26 193.67 785.75 192.60 783.57 192.30 C 780.87 191.92 778.49 192.94 777.07 194.07 C 776.53 194.48 776.22 194.85 776.15 194.94 C 774.96 196.37 774.81 198.07 774.76 198.92 C 774.70 199.89 774.70 201.07 774.72 202.39 L 774.72 202.42 C 774.76 204.98 774.87 208.08 774.84 211.30 C 774.81 214.78 774.61 218.39 773.94 221.55 L 765.11 221.55 L 765.11 221.55 C 765.11 199.80 764.68 180.21 763.25 174.67 C 763.03 173.80 762.38 171.28 760.24 169.25 C 759.54 168.58 757.34 166.71 753.99 166.55 C 749.79 166.35 747.02 169.05 746.57 169.51 C 746.57 169.51 744.26 171.67 743.28 175.08 C 742.36 178.30 741.86 195.30 741.76 221.55 L 733.46 221.55 C 732.05 219.51 731.24 217.03 731.22 214.37 C 731.19 208.51 731.15 202.66 731.11 196.80 C 731.10 194.64 730.20 192.30 728.20 190.64 C 725.62 188.48 722.28 188.89 721.97 188.94 C 719.88 189.23 718.44 190.26 717.83 190.78 C 715.36 192.82 714.39 195.80 714.35 197.94 C 714.20 205.01 714.06 212.07 713.91 219.12 L 713.91 182.51 C 713.91 160.96 731.39 143.48 752.95 143.48 Z M 752.95 143.48 "/>
<path fill="#008B62" d="M 635.82 612 L 713.91 612 L 713.91 533.91 L 635.82 533.91 Z M 635.82 612 "/>
<path fill="#135F44" d="M 675.02 455.82 C 674.97 455.82 674.91 455.82 674.86 455.83 L 674.86 455.82 Z M 675.02 455.82 "/>
<path fill="#008B62" d="M 713.91 533.91 L 792 533.91 L 792 455.82 L 713.91 455.82 Z M 713.91 533.91 "/>
<path fill="#008B62" d="M 557.73 533.91 L 635.82 533.91 L 635.82 455.82 L 557.73 455.82 Z M 557.73 533.91 "/>
<path fill="#135F44" d="M 557.73 377.75 L 601.26 377.75 C 620.35 377.75 635.82 393.22 635.82 412.31 L 635.82 455.83 L 557.73 455.83 Z M 557.73 377.75 "/>
<path fill="#135F44" d="M 635.82 533.91 L 596.67 533.91 C 575.16 533.91 557.73 551.34 557.73 572.84 L 557.73 612 L 635.82 612 Z M 635.82 533.91 "/>
<path fill="#135F44" d="M 713.91 377.73 L 674.75 377.73 C 653.25 377.73 635.82 395.16 635.82 416.67 L 635.82 455.82 L 713.91 455.82 Z M 713.91 377.73 "/>
<path fill="#008B62" d="M 713.91 377.73 L 674.75 377.73 C 653.25 377.73 635.82 360.30 635.82 338.80 L 635.82 299.65 L 713.91 299.65 Z M 713.91 377.73 "/>
<path fill="#135F44" d="M 518.69 455.82 C 497.13 455.82 479.64 473.30 479.64 494.87 L 479.64 612 L 557.73 612 L 557.73 494.87 C 557.73 473.30 540.25 455.82 518.69 455.82 "/>
<path fill="#FFFFFF" d="M 544.66 526.93 C 544.66 531.16 543.08 535.03 540.5 537.98 C 537.41 541.51 532.89 543.73 527.85 543.73 C 527.48 543.73 527.19 543.40 527.28 543.01 C 527.34 542.74 527.60 542.57 527.88 542.57 C 536.49 542.55 543.49 535.54 543.49 526.93 L 543.49 506.10 C 543.49 505.90 543.58 505.73 543.73 505.63 L 543.74 505.63 C 544.30 505.91 544.66 506.48 544.66 507.11 Z M 527.28 537.33 C 527.35 537.06 527.61 536.89 527.88 536.89 C 534.06 536.87 539.08 531.84 539.08 525.66 L 539.08 506.30 C 539.08 505.63 539.58 505.07 540.25 505.00 L 540.25 525.66 C 540.25 528.85 539.04 531.76 537.05 533.96 C 534.78 536.48 531.5 538.06 527.85 538.06 C 527.48 538.06 527.19 537.71 527.28 537.33 M 522.88 582.29 C 522.88 582.22 522.88 582.14 522.88 582.07 C 522.95 565.71 523.02 549.35 523.09 532.99 C 523.09 532.95 523.09 532.92 523.09 532.89 C 523.09 532.59 523.09 532.30 523.10 532.01 C 523.02 510.79 522.66 495.32 522.40 492.75 C 522.22 491.04 521.92 489.42 521.75 488.60 C 521.68 488.25 521.63 488.05 521.63 488.05 C 521.42 487.15 521.22 486.41 521.07 485.89 C 521.85 486.77 522.73 488.02 523.29 489.67 C 523.32 489.74 523.69 490.85 523.81 492.10 C 524.06 494.66 524.49 510.45 524.91 532.05 C 524.90 532.39 524.90 532.74 524.89 533.09 C 524.65 549.53 524.42 565.96 524.17 582.39 C 523.75 582.35 523.32 582.32 522.88 582.29 M 516.88 582.11 C 516.88 582.04 516.87 581.98 516.87 581.91 C 516.09 559.13 516.87 551.85 516.69 529.89 C 516.60 518.94 516.35 514.08 516.44 500.75 C 516.46 496.54 516.51 493.10 516.55 490.88 C 516.53 489.53 516.74 487.30 518.28 485.67 C 518.41 485.53 518.55 485.40 518.69 485.28 L 518.69 504.36 C 518.69 504.95 518.69 505.57 518.69 506.27 C 518.71 513.38 518.80 528.87 519.31 581.91 C 519.31 581.98 519.31 582.05 519.31 582.12 C 518.81 582.11 518.30 582.10 517.80 582.10 C 517.49 582.10 517.18 582.10 516.88 582.11 M 511.90 539.08 C 511.88 518.06 512.52 503.87 512.81 497.32 C 513.09 490.93 514.41 488.00 515.39 486.68 C 515.99 485.88 516.46 485.68 516.50 485.67 C 516.44 485.80 516.36 486.00 516.26 486.23 C 516.14 486.51 516.04 486.72 516.04 486.73 C 514.33 490.43 514.20 500.73 514.20 500.73 C 514.15 505.06 514.03 512.05 514.03 515.73 C 514.03 516.19 514.02 516.66 514.02 517.13 C 514.02 517.83 514.02 518.54 514.02 519.26 L 514.02 519.89 C 514.02 520.93 514.02 521.99 514.02 523.08 C 514.06 545.10 514.36 575.30 514.42 582.00 C 514.42 582.07 514.42 582.13 514.43 582.19 C 513.87 582.22 513.33 582.25 512.80 582.29 C 512.15 565.71 511.92 551.25 511.90 539.08 M 509.87 539.51 C 509.80 539.78 509.55 539.95 509.27 539.95 C 504.20 539.94 499.64 537.69 496.53 534.14 C 493.92 531.16 492.34 527.26 492.34 522.99 L 492.34 505.30 C 492.34 504.34 492.76 503.44 493.50 502.82 L 493.50 522.99 C 493.50 531.70 500.59 538.78 509.30 538.78 C 509.67 538.78 509.96 539.13 509.87 539.51 M 498.30 504.41 L 498.30 521.87 C 498.30 527.85 502.55 533.09 508.41 534.31 L 509.40 534.51 C 509.66 534.56 509.86 534.77 509.88 535.03 C 509.91 535.39 509.62 535.67 509.30 535.67 C 509.26 535.67 509.22 535.66 509.18 535.66 L 508.18 535.45 C 505.19 534.82 502.58 533.25 500.66 531.08 C 498.45 528.60 497.13 525.35 497.13 521.87 L 497.13 503.06 L 497.13 502.38 C 497.85 502.80 498.30 503.57 498.30 504.41 M 548.11 526.91 C 548 521.35 547.88 515.80 547.76 510.25 C 547.73 508.55 546.97 506.21 545.03 504.60 C 544.55 504.20 543.41 503.39 541.77 503.16 C 539.73 502.88 537.94 503.65 536.87 504.49 C 536.46 504.81 536.23 505.08 536.18 505.15 C 535.28 506.23 535.16 507.51 535.13 508.16 C 535.08 508.88 535.08 509.77 535.10 510.77 L 535.10 510.80 C 535.13 512.72 535.21 515.06 535.19 517.48 C 535.14 522.69 534.58 528.27 531.85 530.83 C 531.23 531.41 530.05 532.26 527.84 532.55 C 527.84 532.55 527.83 532.55 527.83 532.55 C 527.84 530.88 527.84 529.22 527.85 527.57 C 527.85 527.02 527.85 526.47 527.85 525.92 L 527.85 525.21 C 527.85 508.81 527.53 494.06 526.46 489.88 C 526.28 489.22 525.80 487.32 524.18 485.79 C 523.66 485.29 522 483.87 519.48 483.76 C 516.31 483.61 514.22 485.64 513.88 485.98 C 513.88 485.98 512.14 487.62 511.41 490.19 C 510.66 492.78 510.28 507.20 510.25 529.31 C 505.71 528.46 502.34 524.5 502.32 519.80 C 502.28 515.39 502.26 510.97 502.23 506.55 C 502.22 504.94 501.55 503.16 500.04 501.91 C 498.09 500.29 495.58 500.60 495.34 500.63 C 493.76 500.85 492.68 501.63 492.22 502.01 C 490.36 503.55 489.63 505.80 489.60 507.42 C 489.49 512.74 489.38 518.06 489.27 523.38 C 489.26 523.79 489.26 524.19 489.28 524.60 C 489.61 532.21 494.45 538.96 501.66 541.61 C 501.67 541.62 501.66 541.61 501.80 541.66 C 507.34 543.70 509.37 544.53 510.27 544.78 C 510.32 556.08 510.44 568.73 510.63 582.37 C 510.63 582.41 510.64 582.45 510.64 582.49 C 505.30 583.06 501.90 584.07 501.90 584.07 L 534.90 584.07 C 534.90 584.07 531.75 583.28 527.10 582.70 C 527.10 582.66 527.10 582.62 527.10 582.57 C 527.10 581.84 527.11 580.5 527.14 578.84 C 527.21 575.13 527.49 562.98 527.67 548.75 C 529.02 548.25 531.24 547.40 535.03 546.01 C 535.17 545.95 535.16 545.96 535.17 545.95 C 542.71 543.17 547.76 536.12 548.10 528.17 C 548.12 527.75 548.12 527.33 548.11 526.91 "/>
<path fill="#135F44" d="M 674.86 532.39 C 675.02 532.39 675.18 532.39 675.34 532.39 L 675.34 532.23 C 674.95 490.94 674.88 478.89 674.86 473.35 Z M 674.86 532.39 "/>
<path fill="#135F44" d="M 678.44 460.42 C 678.00 459.14 677.32 458.17 676.71 457.48 C 676.83 457.89 676.99 458.46 677.15 459.16 C 677.15 459.16 677.19 459.32 677.24 459.60 C 677.37 460.23 677.61 461.5 677.75 462.82 C 677.95 464.82 678.23 476.87 678.29 493.39 L 678.29 494.14 C 678.23 506.89 678.18 519.62 678.12 532.35 L 678.12 532.53 C 678.46 532.55 678.80 532.57 679.13 532.60 C 679.32 519.82 679.50 507.03 679.69 494.23 C 679.69 493.96 679.70 493.69 679.70 493.41 C 679.38 476.60 679.04 464.32 678.84 462.32 C 678.75 461.35 678.46 460.48 678.44 460.42 "/>
<path fill="#135F44" d="M 681.99 498.10 C 684.83 498.10 687.38 496.87 689.15 494.91 C 690.70 493.19 691.64 490.92 691.64 488.44 L 691.64 472.37 C 691.13 472.42 690.73 472.85 690.73 473.37 L 690.73 488.44 C 690.73 493.26 686.83 497.17 682.02 497.19 C 681.80 497.19 681.60 497.32 681.55 497.53 C 681.48 497.82 681.70 498.10 681.99 498.10 "/>
<path fill="#135F44" d="M 681.99 502.51 C 685.91 502.51 689.43 500.78 691.83 498.03 C 693.85 495.73 695.07 492.73 695.07 489.44 L 695.07 474.01 C 695.07 473.51 694.79 473.07 694.36 472.85 L 694.35 472.85 C 694.24 472.94 694.16 473.07 694.16 473.21 L 694.16 489.44 C 694.16 496.14 688.72 501.60 682.01 501.60 C 681.80 501.60 681.60 501.75 681.55 501.94 C 681.48 502.25 681.70 502.51 681.99 502.51 "/>
<path fill="#135F44" d="M 675.47 455.82 C 677.43 455.92 678.73 457.03 679.13 457.41 C 680.39 458.60 680.77 460.07 680.90 460.60 C 681.74 463.85 681.99 475.32 681.99 488.10 L 681.99 489.94 C 681.99 491.21 681.98 492.51 681.98 493.80 C 683.70 493.57 684.62 492.92 685.10 492.46 C 687.23 490.48 687.67 486.14 687.70 482.07 C 687.72 480.19 687.66 478.37 687.63 476.87 L 687.63 476.85 C 687.62 476.07 687.62 475.39 687.66 474.82 C 687.68 474.32 687.77 473.32 688.47 472.48 C 688.51 472.42 688.69 472.21 689.01 471.96 C 689.84 471.32 691.24 470.71 692.82 470.92 C 694.10 471.10 694.99 471.75 695.36 472.05 C 696.87 473.30 697.47 475.14 697.49 476.44 C 697.58 480.78 697.67 485.10 697.76 489.42 C 697.77 489.75 697.76 490.07 697.75 490.39 C 697.49 496.58 693.55 502.07 687.69 504.25 C 687.68 504.25 687.69 504.25 687.58 504.28 C 684.63 505.37 682.90 506.03 681.86 506.42 C 681.71 517.5 681.49 526.96 681.44 529.85 C 681.42 531.12 681.41 532.17 681.41 532.75 C 681.40 532.78 681.40 532.82 681.40 532.85 C 685.03 533.30 687.48 533.91 687.48 533.91 L 713.91 533.91 L 713.91 455.82 Z M 675.47 455.82 "/>
<path fill="#135F44" d="M 672.80 458.14 C 671.47 461.03 671.37 469.05 671.37 469.05 C 671.32 472.41 671.23 477.85 671.23 480.71 L 671.23 486.44 C 671.26 503.57 671.49 527.08 671.54 532.30 L 671.54 532.44 C 671.11 532.46 670.69 532.5 670.27 532.53 C 669.77 519.62 669.59 508.37 669.58 498.89 C 669.56 482.53 670.06 471.48 670.28 466.39 C 670.50 461.41 671.53 459.12 672.29 458.10 C 672.76 457.48 673.13 457.32 673.15 457.32 C 673.11 457.41 673.05 457.57 672.97 457.76 C 672.87 457.98 672.80 458.14 672.80 458.14 M 667.55 496.23 C 667.52 496.23 667.49 496.23 667.46 496.23 L 666.68 496.07 C 664.35 495.57 662.32 494.35 660.82 492.66 C 659.11 490.73 658.08 488.21 658.08 485.5 L 658.08 470.32 C 658.64 470.66 658.99 471.26 658.99 471.91 L 658.99 485.5 C 658.99 490.16 662.30 494.23 666.86 495.17 L 667.63 495.33 C 667.83 495.37 667.99 495.53 668.00 495.73 C 668.03 496.03 667.80 496.23 667.55 496.23 M 667.99 499.23 C 667.94 499.44 667.74 499.57 667.53 499.57 C 663.58 499.57 660.03 497.82 657.61 495.05 C 655.58 492.73 654.35 489.69 654.35 486.37 L 654.35 472.60 C 654.35 471.85 654.68 471.14 655.26 470.66 L 655.26 486.37 C 655.26 493.14 660.77 498.66 667.55 498.66 C 667.84 498.66 668.06 498.92 667.99 499.23 M 673.45 532.39 C 673.45 532.33 673.45 532.28 673.44 532.23 C 672.84 514.5 673.45 508.83 673.30 491.73 C 673.23 483.21 673.04 479.42 673.11 469.05 C 673.13 465.78 673.17 463.10 673.20 461.37 C 673.18 460.32 673.34 458.58 674.54 457.32 C 674.64 457.21 674.75 457.10 674.86 457.01 L 674.86 455.83 C 672.74 455.98 671.36 457.32 671.12 457.55 C 671.12 457.55 669.76 458.83 669.19 460.83 C 668.61 462.85 668.31 474.07 668.29 491.28 C 664.75 490.62 662.14 487.53 662.11 483.89 C 662.09 480.44 662.07 477.01 662.05 473.57 C 662.04 472.32 661.52 470.94 660.34 469.96 C 658.83 468.69 656.87 468.94 656.69 468.96 C 655.46 469.12 654.62 469.73 654.26 470.03 C 652.81 471.23 652.24 472.98 652.21 474.25 C 652.13 478.39 652.04 482.53 651.96 486.66 C 651.95 486.98 651.96 487.30 651.97 487.62 C 652.22 493.53 655.99 498.80 661.61 500.87 L 661.71 500.91 C 666.02 502.48 667.60 503.14 668.31 503.32 C 668.35 512.12 668.44 521.96 668.59 532.58 L 668.59 532.67 C 664.44 533.12 661.79 533.91 661.79 533.91 L 674.86 533.91 L 674.86 532.39 C 674.63 532.37 674.40 532.37 674.16 532.37 C 673.92 532.37 673.69 532.39 673.45 532.39 "/>
<path fill="#008B62" d="M 745.25 604.71 C 737.59 604.71 731.73 602.72 727.66 598.73 C 723.58 594.75 721.55 589.07 721.55 581.71 C 721.55 571.56 724.83 562.62 731.41 554.91 C 737.92 547.17 746.03 543.30 755.72 543.30 C 761.04 543.30 765.19 544.44 768.16 546.71 C 771.12 548.98 772.61 552.05 772.61 555.92 C 772.61 559.32 771.50 562.26 769.29 564.73 C 767.14 567.24 764.49 568.49 761.35 568.49 C 759.37 568.49 757.75 568.05 756.50 567.18 C 758.71 563.54 759.82 559.87 759.82 556.18 C 759.82 554.17 759.35 552.61 758.40 551.49 C 757.46 550.37 756.08 549.81 754.28 549.81 C 751.31 549.66 748.30 551.22 745.26 554.48 C 742.23 557.74 739.79 561.79 737.96 566.63 C 736.12 571.48 735.28 576.07 735.42 580.40 C 735.42 585.61 736.67 589.62 739.18 592.43 C 741.68 595.23 745.32 596.64 750.09 596.64 C 755.21 596.64 760.05 595.12 764.62 592.10 C 769.36 588.96 772.91 584.72 775.27 579.40 C 776.69 579.40 778.17 579.67 779.68 580.23 C 776.27 588.08 771.66 594.13 765.82 598.36 C 759.99 602.60 753.13 604.71 745.25 604.71 "/>
<path fill="#FFFFFF" d="M 669.49 291.30 C 661.84 291.30 655.98 289.31 651.91 285.33 C 647.83 281.34 645.80 275.67 645.80 268.30 C 645.80 258.15 649.08 249.22 655.66 241.51 C 662.17 233.77 670.28 229.90 679.97 229.90 C 685.29 229.90 689.44 231.03 692.41 233.30 C 695.37 235.57 696.86 238.64 696.86 242.51 C 696.86 245.92 695.75 248.85 693.54 251.33 C 691.39 253.83 688.74 255.08 685.60 255.08 C 683.62 255.08 682.00 254.64 680.75 253.77 C 682.96 250.14 684.07 246.47 684.07 242.77 C 684.07 240.76 683.60 239.20 682.65 238.08 C 681.71 236.96 680.33 236.40 678.53 236.40 C 675.56 236.26 672.55 237.81 669.51 241.07 C 666.48 244.33 664.04 248.38 662.21 253.23 C 660.37 258.07 659.53 262.66 659.67 267 C 659.67 272.21 660.92 276.21 663.43 279.02 C 665.93 281.83 669.57 283.23 674.34 283.23 C 679.46 283.23 684.30 281.72 688.87 278.69 C 693.61 275.55 697.16 271.32 699.52 265.99 C 700.94 265.99 702.41 266.27 703.93 266.82 C 700.52 274.68 695.91 280.72 690.07 284.96 C 684.24 289.19 677.38 291.30 669.49 291.30 "/>
<path fill="#135F44" d="M 596.69 299.65 C 575.13 299.65 557.65 317.12 557.65 338.69 C 557.65 360.25 575.13 377.73 596.69 377.73 C 618.26 377.73 635.74 360.25 635.74 338.69 C 635.74 317.12 618.26 299.65 596.69 299.65 "/>
<path fill="#FFFFFF" d="M 620.32 352.90 C 623.37 347.85 624.83 341.78 624.08 335.47 C 622.31 320.35 608.60 309.52 593.48 311.30 C 578.35 313.07 567.53 326.78 569.30 341.91 C 571.08 357.03 584.78 367.86 599.91 366.08 C 605.91 365.38 611.22 362.79 615.35 359 L 619.72 362.45 C 621.42 363.80 623.90 363.50 625.25 361.80 C 626.59 360.09 626.30 357.62 624.60 356.27 Z M 620.32 352.90 "/>
<path fill="#008B62" d="M 620.63 338.69 C 620.63 325.47 609.91 314.76 596.69 314.76 C 583.48 314.76 572.76 325.47 572.76 338.69 C 572.76 351.91 583.48 362.62 596.69 362.62 C 609.91 362.62 620.63 351.91 620.63 338.69 "/>
<path fill="#135F44" d="M 744.67 421.63 C 744.66 421.64 744.65 421.65 744.64 421.66 L 744.63 421.67 C 744.60 421.68 744.53 421.74 744.28 421.93 L 744.27 421.94 C 744.25 421.96 744.23 421.97 744.21 421.98 L 743.72 422.37 L 743.67 422.41 C 743.61 422.46 743.55 422.51 743.48 422.57 L 743.32 422.70 C 743.11 422.87 742.90 423.05 742.75 423.19 L 742.73 423.21 C 742.73 423.21 742.73 423.21 742.73 423.21 C 742.29 423.60 741.92 423.93 741.61 424.23 C 741.45 424.39 741.28 424.55 741.14 424.70 C 741.09 424.74 741.05 424.78 741.01 424.83 L 740.84 425 C 740.71 425.12 740.59 425.24 740.49 425.35 L 740.46 425.39 C 738.80 427.14 737.18 429.17 735.66 431.44 C 734.47 433.21 732.76 435.93 730.06 441.29 C 729.54 442.33 729.01 443.41 728.50 444.45 L 728.42 444.63 C 727.80 445.89 727.10 447.32 726.41 448.69 C 726.06 449.36 725.28 449.67 724.57 449.39 C 724.37 449.32 724.19 449.20 724.04 449.04 C 723.69 448.67 723.55 448.14 723.69 447.64 C 724.17 445.88 724.71 444.08 725.28 442.30 C 726.98 436.94 728.87 432.45 731.06 428.58 C 732.35 426.31 733.76 424.22 735.27 422.36 C 736.91 420.34 738.72 418.53 740.64 416.99 C 740.96 416.73 741.42 416.38 741.76 416.12 L 741.83 416.07 C 741.85 416.06 741.86 416.05 741.88 416.04 C 741.97 415.98 742.07 415.90 742.19 415.82 L 742.25 415.78 C 742.52 415.58 742.83 415.37 743.08 415.20 L 743.11 415.18 C 747.15 412.51 751.79 410.96 756.28 409.46 C 757.67 409.00 759.10 408.52 760.48 408.02 C 761.42 407.67 762.18 407.37 762.88 407.08 L 762.92 407.07 C 765.07 406.20 767.13 405.07 769.04 403.70 C 770.91 402.36 772.65 400.79 774.21 399.04 C 777.28 395.57 779.64 391.35 781.03 386.86 C 781.25 386.13 781.98 385.70 782.72 385.85 C 783.01 385.92 783.28 386.06 783.48 386.28 C 783.78 386.59 783.93 387.01 783.88 387.44 C 783.30 392.89 781.15 398.17 777.66 402.73 C 774.24 407.19 769.75 410.70 764.67 412.86 L 764.64 412.88 C 762.22 413.96 759.73 414.84 757.33 415.68 L 757.29 415.69 C 754.76 416.58 752.37 417.42 750.02 418.50 L 750.00 418.51 C 748.08 419.38 746.29 420.43 744.67 421.63 "/>
<path fill="#008B62" d="M 714.71 436.03 C 713.67 432.08 713.76 427.83 714.98 423.38 C 717.19 415.28 723.16 406.30 732.72 396.67 C 742.28 387.05 751.23 381.03 759.32 378.76 C 761.76 378.08 764.16 377.73 766.48 377.73 C 768.36 377.73 770.19 377.96 771.96 378.41 C 773.78 378.88 775.57 379.60 777.32 380.56 C 778.76 381.35 779.32 383.20 778.40 384.57 C 778.14 384.96 777.93 385.39 777.79 385.86 C 776.55 389.90 774.43 393.67 771.67 396.79 C 770.28 398.35 768.74 399.75 767.07 400.94 C 765.38 402.15 763.55 403.16 761.66 403.92 L 761.58 403.95 C 760.92 404.23 760.20 404.51 759.31 404.83 C 757.98 405.32 756.64 405.77 755.21 406.25 C 750.51 407.81 745.66 409.43 741.25 412.35 C 740.92 412.56 740.58 412.80 740.28 413.01 L 740.23 413.05 C 740.12 413.13 740.03 413.20 739.95 413.25 L 739.93 413.26 C 739.88 413.30 739.83 413.33 739.79 413.37 L 739.73 413.41 C 739.37 413.68 738.88 414.05 738.51 414.35 C 736.41 416.05 734.43 418.02 732.64 420.23 C 731.02 422.23 729.49 424.48 728.11 426.91 C 725.80 430.99 723.82 435.69 722.05 441.27 C 721.50 442.98 720.98 444.71 720.51 446.42 C 717.61 443.16 715.66 439.67 714.71 436.03 "/>
<path fill="#135F44" d="M 790.95 410.21 C 788.74 418.49 782.82 427.52 773.35 437.05 C 763.88 446.58 754.89 452.56 746.62 454.82 C 742.16 456.04 737.89 456.15 733.94 455.15 C 731.69 454.58 729.49 453.63 727.38 452.32 C 728.23 451.86 728.96 451.15 729.43 450.23 C 730.14 448.83 730.84 447.39 731.46 446.12 L 731.55 445.94 C 732.05 444.91 732.58 443.84 733.09 442.82 C 735.70 437.62 737.34 435.01 738.47 433.33 C 739.88 431.23 741.37 429.35 742.91 427.74 C 742.92 427.71 742.94 427.69 742.96 427.67 C 743.02 427.61 743.14 427.5 743.24 427.39 L 743.41 427.23 C 743.46 427.17 743.50 427.13 743.55 427.08 C 743.67 426.95 743.82 426.82 743.96 426.68 C 744.24 426.41 744.58 426.10 744.99 425.73 L 745.02 425.71 C 745.02 425.70 745.03 425.70 745.03 425.69 C 745.13 425.60 745.33 425.44 745.49 425.31 L 745.65 425.17 C 745.71 425.12 745.77 425.07 745.82 425.03 L 746.32 424.64 L 746.33 424.63 C 746.35 424.62 746.37 424.60 746.39 424.58 C 746.49 424.51 746.57 424.45 746.59 424.43 C 746.63 424.41 746.66 424.38 746.69 424.35 C 748.11 423.30 749.69 422.37 751.37 421.61 C 751.40 421.60 751.42 421.59 751.44 421.58 C 753.65 420.57 755.96 419.75 758.42 418.89 L 758.45 418.88 C 760.92 418.01 763.47 417.12 766.01 415.98 C 771.62 413.58 776.58 409.71 780.35 404.78 C 783.93 400.11 786.24 394.74 787.08 389.16 C 789.06 391.82 790.44 394.62 791.20 397.53 C 792.23 401.47 792.14 405.74 790.95 410.21 "/>
</svg>
