<svg xmlns="http://www.w3.org/2000/svg" viewBox="272.5 301.0 247.0 48.5" role="img" aria-label="Be a Cactus"><path fill-rule="evenodd" fill="#135F44" d="M 312.22 335.59 C 312.22 334.04 311.52 332.52 310.12 331.01 C 307.36 328.04 302.10 326.02 297.30 325.32 C 296.03 325.14 294.64 325.05 293.12 325.05 L 291.13 329.84 C 289.96 332.83 288.82 335.78 287.86 338.84 C 287.48 340.13 287.50 340.91 288.78 341.75 C 290.39 342.79 294.66 343.20 297 343.20 C 299.06 343.20 301.07 343.02 303.03 342.65 C 306.05 341.98 308.40 340.94 310.06 339.50 C 311.50 338.26 312.22 336.95 312.22 335.59 M 317.75 311.14 C 317.75 313.64 316.17 316.01 312.99 318.28 C 309.82 320.55 305.59 322.13 300.32 323.05 C 303.41 323.92 306.39 325.07 309.12 326.66 C 310.45 327.44 311.55 328.25 312.44 329.10 C 316.73 333.39 315.81 338.63 310.69 342.06 C 306.90 344.60 301.62 345.58 296.83 345.58 C 293.32 345.58 290.21 345.03 287.48 343.92 C 285.32 343.04 283.89 341.87 284.26 339.64 C 284.30 339.42 284.45 339.01 284.71 338.42 L 289.85 325.05 L 287.31 325.05 C 286.17 325.05 284.93 324.96 284.93 323.83 C 284.93 323.09 285.56 322.58 286.81 322.31 C 288.07 322.03 289.52 321.89 291.18 321.89 L 294.95 311.81 C 295.41 310.66 295.85 309.49 297.27 309.49 C 298.05 309.49 298.57 309.94 298.82 310.82 C 299.12 311.90 298.13 313.59 297.60 314.69 L 294.50 321.62 C 298.59 321.62 301.90 320.57 306.13 319.01 C 309.19 317.91 311.53 316.56 313.16 314.97 C 314.52 313.64 315.21 312.37 315.21 311.16 C 315.21 309.57 313.90 308.28 311.28 307.28 C 308.40 306.17 304.34 305.62 299.10 305.62 C 294.40 305.62 289.49 306.54 285.21 308.28 C 282.44 309.38 280.39 310.69 279.06 312.21 C 277.92 313.5 277.35 314.86 277.35 316.30 C 277.35 318.89 279.08 319.31 279.73 319.96 C 280.02 320.25 280.17 320.66 280.17 321.17 C 280.17 321.71 279.41 321.78 278.84 321.78 C 277.77 321.78 276.83 321.23 276.02 320.12 C 275.21 319.01 274.80 317.63 274.80 315.97 C 274.80 311.37 279.20 308.21 283.66 306.34 C 286.02 305.34 288.78 304.59 291.93 304.10 C 298.71 303.03 307.13 302.79 313.27 305.44 C 315.77 306.52 317.75 308.37 317.75 311.14 M 328.10 327.04 C 328.10 326.08 327.81 325.60 327.22 325.60 C 326.59 325.60 325.84 326.42 324.98 328.07 C 324.11 329.71 323.44 331.41 322.96 333.18 C 323.28 333.38 323.72 333.46 324.07 333.46 C 325.17 333.46 326.12 332.76 326.91 331.36 C 327.71 329.96 328.10 328.51 328.10 327.04 M 334.64 331.08 C 334.64 333.37 333.53 336.17 331.32 339.5 C 328.88 343.15 326.50 344.97 324.17 344.97 C 320.65 344.97 319.47 341.99 319.47 338.44 C 319.47 335.82 320.01 333.13 321.10 330.36 C 322.25 327.45 324.03 324.13 326.28 323.25 C 327.44 322.79 328.53 322.81 329.43 323.66 C 330.17 324.37 330.54 325.39 330.54 326.73 C 330.54 329.17 329.89 331.30 328.57 333.12 C 327.02 335.28 324.80 336.28 322.40 335.67 C 322.26 336.5 322.07 337.68 322.07 338.50 C 322.07 339.71 322.25 340.70 322.60 341.46 C 322.95 342.21 323.55 342.59 324.40 342.59 C 325.69 342.59 327.19 341.39 328.91 338.98 C 330.62 336.57 331.74 334.18 332.26 331.81 C 332.48 330.83 332.74 329.64 333.69 329.64 C 334.32 329.64 334.64 330.12 334.64 331.08 M 362.15 331.95 C 362.76 330.23 363.26 327.23 362.45 325.60 C 362.17 325.05 361.74 324.77 361.15 324.77 C 359.38 324.77 357.16 326.81 354.51 330.90 C 351.85 334.98 350.52 338.37 350.52 341.05 C 350.52 341.60 350.62 342.08 350.80 342.51 C 350.98 342.94 351.35 343.15 351.91 343.15 C 353.16 343.15 355.01 341.76 357.44 339.01 C 359.88 336.25 361.44 333.89 362.15 331.95 M 372.89 330.47 C 372.89 331.28 372.02 333.11 370.28 335.95 C 368.58 338.75 366.44 342.01 364.42 343.70 C 363.31 344.62 362.37 345.05 361.59 344.97 C 360.08 344.90 359.43 343.60 359.43 342.04 C 359.43 341.49 359.55 340.84 359.76 340.10 C 356.90 342.83 354.60 345.14 351.74 345.14 C 350.78 345.14 349.98 344.77 349.33 344.03 C 348.32 342.88 348.23 340.92 348.48 339.26 C 348.88 336.57 350.28 333.31 351.78 330.73 C 353.47 327.81 356.07 324.30 358.84 322.94 C 359.59 322.57 360.46 322.39 361.46 322.39 C 368.31 322.39 364.39 332.94 363.29 336.23 C 362.66 337.96 361.92 339.47 361.92 341.10 C 361.92 341.98 362.02 342.43 362.20 342.43 C 362.5 342.43 363.04 342.05 363.83 341.29 C 364.63 340.54 365.19 339.90 365.52 339.38 C 366.37 338.20 367.24 336.87 368.12 335.40 C 369.19 333.66 369.97 332.23 370.45 331.08 C 370.80 330.22 371.09 329.53 372.05 329.53 C 372.61 329.53 372.89 329.84 372.89 330.47 M 410.26 324.94 C 410.69 323.01 412.57 320.04 412.57 314.25 C 412.57 310.62 411 306.62 407.04 306.62 C 402.91 306.62 398.76 309.69 394.61 315.84 C 390.46 322 388.39 328.19 388.39 334.44 C 388.39 338.17 389.21 340.91 390.87 342.65 C 392.28 344.09 394.14 344.81 396.46 344.81 C 399.27 344.81 402.00 343.94 404.66 342.20 C 406.54 340.97 408.81 338.93 411.47 336.07 C 412.13 335.34 413.21 333.96 414.12 333.96 C 414.94 333.96 415.34 334.44 415.34 335.41 C 415.34 336.11 414.40 337.33 412.52 339.07 C 409.94 341.44 407.83 343.15 406.21 344.19 C 402.85 346.30 399.51 347.35 396.19 347.35 C 393.16 347.35 390.73 346.41 388.88 344.53 C 386.74 342.31 385.67 339.08 385.67 334.83 C 385.67 327.77 388.01 320.87 392.67 314.12 C 397.34 307.38 402.19 304.01 407.20 304.01 C 409.68 304.01 411.58 304.76 412.93 306.25 C 413.57 306.96 414.14 307.82 414.58 308.84 C 416.28 312.79 415.00 320.95 412.82 325.37 C 412.5 326.03 411.77 326.62 411.11 326.52 C 410.64 326.45 410.00 326.05 410.26 324.94 M 431.73 331.95 C 432.35 330.23 432.85 327.23 432.03 325.60 C 431.75 325.05 431.32 324.77 430.73 324.77 C 428.96 324.77 426.75 326.81 424.08 330.90 C 421.43 334.98 420.10 338.37 420.10 341.05 C 420.10 341.60 420.19 342.08 420.38 342.51 C 420.56 342.94 420.93 343.15 421.48 343.15 C 422.74 343.15 424.58 341.76 427.02 339.01 C 429.46 336.25 431.03 333.89 431.73 331.95 M 442.46 330.47 C 442.46 331.28 441.60 333.11 439.86 335.95 C 438.17 338.75 436.02 342.01 434 343.70 C 432.89 344.62 431.95 345.05 431.17 344.97 C 429.67 344.90 429.01 343.60 429.01 342.04 C 429.01 341.49 429.12 340.84 429.35 340.10 C 426.48 342.83 424.18 345.14 421.32 345.14 C 420.36 345.14 419.56 344.77 418.91 344.03 C 417.90 342.88 417.81 340.92 418.05 339.26 C 418.46 336.57 419.86 333.31 421.35 330.73 C 423.05 327.81 425.66 324.30 428.42 322.94 C 429.17 322.57 430.04 322.39 431.03 322.39 C 437.89 322.39 433.96 332.94 432.87 336.23 C 432.25 337.96 431.50 339.47 431.50 341.10 C 431.50 341.98 431.60 342.43 431.78 342.43 C 432.08 342.43 432.62 342.05 433.41 341.29 C 434.21 340.54 434.77 339.90 435.10 339.38 C 435.95 338.20 436.82 336.87 437.70 335.40 C 438.77 333.66 439.55 332.23 440.03 331.08 C 440.37 330.22 440.67 329.53 441.64 329.53 C 442.19 329.53 442.46 329.84 442.46 330.47 M 462.23 331.96 C 462.23 333.09 461.53 334.39 460.73 335.78 C 459.14 338.55 457.19 340.90 454.86 342.82 C 452.24 344.99 449.70 346.08 447.23 346.08 C 443.53 346.08 441.75 343.48 441.75 339.83 C 441.75 338.46 441.95 337.10 442.35 335.73 C 443.28 332.44 444.73 329.57 446.73 327.09 C 448.94 324.33 451.17 322.94 453.42 322.94 C 456.23 322.94 457.97 325.28 458.07 327.92 C 458.14 329.60 457.53 331.31 456.67 332.91 C 456.00 334.16 455.28 334.79 454.53 334.79 C 453.70 334.79 453.09 334.14 453.09 333.35 C 453.09 332.87 453.28 332.20 453.67 331.33 C 454 330.60 454.33 329.85 454.70 329.01 C 455.30 327.68 455.16 325.55 453.26 325.55 C 451.82 325.55 450.10 327.00 448.11 329.92 C 445.84 333.23 444.12 336.64 444.12 340.05 C 444.12 341.23 444.37 342.18 444.84 342.90 C 445.32 343.62 446.08 343.98 447.11 343.98 C 451.00 343.98 454.90 339.94 457.35 336.50 C 457.80 335.88 458.50 334.58 459.46 332.63 C 460.05 331.41 460.62 330.80 461.17 330.80 C 461.87 330.80 462.23 331.19 462.23 331.96 M 477.06 332.01 C 475.53 335.78 473.33 340.11 471.03 342.99 C 470.02 344.25 468.21 345.97 466.76 345.97 C 466.03 345.97 465.42 345.66 464.94 345.03 C 464.46 344.41 464.22 343.54 464.22 342.44 C 464.22 341.12 464.50 339.39 465.08 337.28 C 465.65 335.17 466.69 332 468.20 327.76 C 467.07 327.90 465.32 327.92 463.89 327.92 C 463.08 327.92 462.23 327.65 462.23 326.79 C 462.23 326.11 462.85 325.74 463.44 325.63 C 464.05 325.51 465.37 325.55 465.82 325.55 C 466.92 325.55 468.28 325.5 469.20 325.38 C 470.27 322.82 471.36 320.24 472.46 317.67 C 473.20 316.21 474 315.47 474.85 315.47 C 475.40 315.47 475.80 315.59 476.03 315.83 C 476.28 316.07 476.40 316.37 476.40 316.70 C 476.40 316.85 475.92 317.79 474.98 319.53 C 474.04 321.28 473.15 323.19 472.30 325.27 L 474.73 324.88 C 475.33 324.88 475.79 324.99 476.12 325.21 C 476.78 325.65 476.77 326.78 476.20 327.34 C 475.92 327.62 475.60 327.76 475.23 327.76 L 473.41 327.59 L 472.33 327.59 C 472.05 327.59 471.62 327.65 471.03 327.76 C 469.52 331.34 466.54 338.85 466.54 341.5 C 466.54 341.95 466.64 343.32 467.21 343.32 C 467.61 343.32 467.94 343.26 468.20 343.15 C 468.68 342.92 469.16 342.52 469.64 341.94 C 470.82 340.46 472.50 337.40 474.68 332.73 C 474.94 332.14 475.21 331.54 475.48 330.94 C 475.76 330.33 476.14 330.03 476.62 330.03 C 477.69 330.03 477.34 331.46 477.06 332.01 M 499.20 334.79 C 498.50 336.37 497.51 338.08 496.24 339.91 C 494.97 341.74 493.78 343.11 492.67 344.03 C 491.53 345.02 490.42 345.50 489.29 344.09 C 488.74 343.39 488.46 341.88 488.46 340.99 L 488.46 340.32 C 486.98 342.26 485.30 344.21 483.51 345.03 C 482.86 345.32 482.35 345.47 481.99 345.47 C 481.25 345.47 480.60 345.12 480.05 344.42 C 479.48 343.66 479.22 342.12 479.22 341.16 C 479.22 339.58 479.32 339.03 479.72 337.52 C 480.20 335.68 481.00 333.62 482.12 331.34 C 483.25 329.06 484.41 327.21 485.58 325.82 C 486.12 325.17 486.51 324.88 487.30 324.88 C 488.08 324.88 488.74 325.35 488.74 326.21 C 488.74 326.69 488.48 327.26 487.96 327.92 C 485.93 330.62 484.00 333.99 482.82 336.89 C 482.27 338.23 481.76 340.22 481.76 341.65 C 481.76 342.17 481.84 342.54 481.99 342.76 C 482.14 342.98 482.30 343.09 482.48 343.09 C 483.43 343.09 484.94 341.42 485.81 340.42 C 487.21 338.79 488.33 337.20 489.18 335.65 C 489.55 334.98 490.20 333.51 491.12 331.26 C 491.58 330.11 492.21 328.87 493.39 328.87 C 493.72 328.87 494.03 328.98 494.33 329.20 C 495.27 329.91 494.54 331.53 493.78 332.69 C 492.38 334.80 491.43 336.47 490.95 338.66 C 490.75 339.62 490.48 341.17 490.87 341.79 C 491.16 342.25 491.67 342.14 492.09 341.79 C 493.25 340.81 494.46 339.10 495.27 337.61 C 495.46 337.28 495.99 336.17 496.88 334.29 C 497.30 333.40 497.68 332.69 498.54 332.69 C 499.72 332.69 499.60 333.99 499.20 334.79 M 517.19 328.34 C 517.19 329.45 516.99 330.66 516.58 331.95 C 516.03 333.69 515.33 334.75 514.48 335.12 C 513.56 335.58 512.37 335.07 512.37 333.95 C 512.37 332.80 514.37 330.45 514.37 328.11 C 514.37 326.23 513.04 325.49 511.01 325.49 C 508.31 325.49 505.70 326.73 504.46 329.21 C 504.00 330.13 504.05 331.33 504.41 332.29 C 504.96 333.80 506.40 334.91 508.23 336.26 C 509.82 337.43 511.59 338.66 512.49 339.81 C 513.72 341.41 513.70 343.39 511.60 344.25 C 510.68 344.62 509.51 344.81 508.11 344.81 C 505.49 344.81 503.48 344.33 502.08 343.37 C 498.85 341.17 500.88 338.17 502.47 338.17 C 503.67 338.17 503.65 339.13 503.16 339.80 C 502.42 340.80 503.06 341.58 504.38 342.18 C 505.39 342.64 506.80 342.87 508.61 342.87 C 509.53 342.87 510.14 342.78 510.44 342.59 C 511.30 342.06 510.78 341.23 510.05 340.57 C 509.5 340.07 508.37 339.23 506.67 338.04 C 504.82 336.75 502.82 335.29 502.05 333.66 C 501.53 332.55 501.46 330.84 501.75 329.60 C 501.86 329.12 502.08 328.61 502.41 328.05 C 504.68 323.91 512.58 321.26 515.83 324.42 C 516.74 325.29 517.19 326.60 517.19 328.34 "/></svg>
